<?xml version="1.0" standalone="no"?>
<!DOCTYPE svg PUBLIC "-//W3C//DTD SVG 20010904//EN"
 "http://www.w3.org/TR/2001/REC-SVG-20010904/DTD/svg10.dtd">
<svg version="1.0" xmlns="http://www.w3.org/2000/svg"
 width="155.000000pt" height="155.000000pt" viewBox="0 0 155.000000 155.000000"
 preserveAspectRatio="xMidYMid meet">
<metadata>
Created by potrace 1.14, written by Peter Selinger 2001-2017
</metadata>
<g transform="translate(0.000000,155.000000) scale(0.100000,-0.100000)"
fill="#000000" stroke="none">
<path d="M647 1296 c-113 -282 -115 -286 -94 -286 9 0 24 23 37 58 13 31 26
60 30 64 3 5 32 -58 64 -140 31 -81 68 -174 81 -207 13 -33 51 -130 84 -215
57 -146 187 -480 198 -507 4 -10 -15 -13 -76 -13 -65 0 -81 -3 -81 -15 0 -13
41 -15 313 -15 272 0 314 2 314 15 0 12 -16 15 -77 15 l-77 0 -297 745 c-164
410 -304 745 -310 745 -6 0 -56 -110 -109 -244z"/>
<path d="M520 656 c-103 -21 -184 -85 -237 -191 -14 -27 -43 -101 -65 -164
-61 -181 -100 -239 -171 -256 -27 -7 -35 -19 -18 -29 22 -14 155 -13 214 0
148 35 227 133 312 389 56 170 91 218 160 224 18 1 20 31 3 32 -67 6 -153 4
-198 -5z"/>
</g>
</svg>
