<?xml version="1.0" standalone="no"?>
<!DOCTYPE svg PUBLIC "-//W3C//DTD SVG 20010904//EN"
 "http://www.w3.org/TR/2001/REC-SVG-20010904/DTD/svg10.dtd">
<svg version="1.0" xmlns="http://www.w3.org/2000/svg"
 width="500.000000pt" height="500.000000pt" viewBox="0 0 500.000000 500.000000"
 preserveAspectRatio="xMidYMid meet">
<metadata>
Created by potrace 1.14, written by Peter Selinger 2001-2017
</metadata>
<g transform="translate(0.000000,500.000000) scale(0.100000,-0.100000)"
fill="#000000" stroke="none">
<path d="M2427 4522 c-9 -10 -142 -329 -295 -708 l-279 -689 61 -32 61 -31 11
21 c6 12 37 86 69 165 32 78 61 142 64 142 4 0 247 -618 541 -1372 l535 -1373
-205 -5 -205 -5 -3 -68 -3 -67 846 0 845 0 0 70 0 70 -202 0 -203 0 -770 1927
c-423 1059 -778 1937 -788 1950 -22 28 -58 30 -80 5z"/>
<path d="M1995 2244 c-300 -35 -502 -137 -656 -331 -125 -157 -179 -272 -310
-663 -50 -146 -112 -311 -139 -367 -80 -163 -178 -247 -305 -260 l-55 -6 0
-62 c0 -73 -13 -66 166 -86 397 -43 721 72 930 332 128 158 199 309 336 719
101 302 147 404 215 480 60 66 109 89 191 90 l62 0 0 64 c0 62 -1 65 -27 70
-96 19 -318 30 -408 20z"/>
</g>
</svg>
