<svg width="35" height="35" viewBox="0 0 35 35" fill="none" xmlns="http://www.w3.org/2000/svg">
<path d="M17.5 0C7.83398 0 0 7.83398 0 17.5C0 27.166 7.83398 35 17.5 35C27.166 35 35 27.166 35 17.5C35 7.83398 27.166 0 17.5 0ZM32.6689 17.5C32.6689 24.4316 28.0273 30.2764 21.6768 32.0879L21.5674 32.1152V26.4414C21.5674 25.0947 21.2051 24.1104 20.4873 23.4883C21.2871 23.4062 22.0186 23.2764 22.7227 23.0918L22.6201 23.1123C23.3652 22.9072 24.0146 22.627 24.6162 22.2783L24.5752 22.2988C25.2383 21.9365 25.792 21.4717 26.2568 20.9248L26.2637 20.918C26.7148 20.3711 27.084 19.6396 27.3643 18.7305C27.6514 17.8213 27.7881 16.7754 27.7881 15.5996C27.7881 13.918 27.2412 12.4893 26.1406 11.3135C26.6533 10.0488 26.5986 8.63379 25.9766 7.06836C25.5869 6.94531 25.0264 7.02051 24.2881 7.29395C23.5498 7.56738 22.9209 7.875 22.3262 8.2373L22.374 8.20996L21.5811 8.70898C20.3848 8.36719 19.0039 8.16895 17.582 8.16895C16.1602 8.16895 14.7861 8.36719 13.4805 8.73633L13.583 8.70898C12.667 6.95898 10.3359 6.84277 9.16699 7.06152C8.3877 8.29883 8.4834 10.2539 9.02344 11.3066C7.92969 12.4893 7.37598 13.918 7.37598 15.5928C7.37598 16.7754 7.51953 17.8145 7.7998 18.7168C8.08691 19.6191 8.44922 20.3438 8.89355 20.9043C9.35156 21.4717 9.91211 21.9365 10.541 22.2852L10.5684 22.2988C11.1289 22.627 11.7783 22.9072 12.4619 23.0986L12.5234 23.1123C13.1318 23.2764 13.8564 23.4062 14.5947 23.4814L14.6562 23.4883C14.1025 23.9873 13.7607 24.7051 13.6377 25.6348C13.3711 25.7646 13.0566 25.874 12.7285 25.9424L12.7012 25.9492C12.3662 26.0176 11.9834 26.0518 11.5938 26.0518H11.5117H11.5186C11.0605 26.0518 10.6025 25.9014 10.1514 25.6006C9.7002 25.2998 9.31738 24.8691 8.99609 24.3018C8.73633 23.8643 8.40137 23.502 7.99805 23.2285L7.98438 23.2217C7.57422 22.9414 7.23242 22.7773 6.95215 22.7227L6.76074 22.6816L6.6582 22.668C6.47363 22.668 6.30957 22.7705 6.22754 22.9277L6.2002 22.9756L6.14551 23.1943C6.14551 23.3857 6.26172 23.5566 6.42578 23.6318C6.7334 23.7686 7.03418 24.0352 7.32812 24.4248C7.57422 24.7324 7.79297 25.0811 7.9707 25.457L7.98438 25.4912L8.19629 25.9697C8.37402 26.4893 8.68848 26.9268 9.10547 27.248L9.1123 27.2549C9.50195 27.5625 9.97363 27.7812 10.4863 27.877H10.5068C10.9375 27.959 11.4365 28.0137 11.9492 28.0205H11.9561H12.1475C12.4893 28.0205 12.8174 27.9932 13.1455 27.9385L13.1113 27.9453L13.5898 27.8633C13.5898 28.3896 13.5967 29.0049 13.6035 29.7158C13.6104 30.1465 13.6104 31.3154 13.6104 32.1768C7.08203 30.3926 2.33789 24.5 2.33789 17.5C2.33789 11.2588 6.11133 5.89258 11.498 3.56152L11.5938 3.52734C13.3369 2.76855 15.3672 2.33105 17.5 2.33105C25.874 2.33105 32.6621 9.11914 32.6621 17.4932L32.6689 17.5Z" fill="#737373"/>
</svg>
