<svg width="35" height="28" viewBox="0 0 35 28" fill="none" xmlns="http://www.w3.org/2000/svg">
<path d="M34.3913 3.30415C33.1288 3.86827 31.7655 4.24435 30.3417 4.41224C31.7991 3.5392 32.9139 2.15575 33.4444 0.510397C32.0811 1.31629 30.5701 1.90727 28.965 2.22291C27.6756 0.8529 25.8422 0 23.814 0C19.9189 0 16.7625 3.1564 16.7625 7.05153C16.7625 7.60222 16.8229 8.1462 16.9438 8.6566C11.081 8.3611 5.88299 5.55392 2.40424 1.28271C1.79982 2.32365 1.4506 3.5392 1.4506 4.82862C1.4506 7.27315 2.69301 9.43562 4.58685 10.6982C3.43175 10.6579 2.3438 10.3422 1.39016 9.81842V9.90572C1.39016 13.324 3.82126 16.1715 7.05153 16.8229C6.46055 16.9841 5.83598 17.0714 5.19127 17.0714C4.7346 17.0714 4.29136 17.0244 3.86155 16.9438C4.76146 19.7443 7.36717 21.7859 10.4497 21.8463C8.03203 23.7402 4.99652 24.8684 1.68565 24.8684C1.11481 24.8684 0.557407 24.8348 0 24.7677C3.12954 26.7757 6.83663 27.9375 10.8191 27.9375C23.7939 27.9375 30.8924 17.1856 30.8924 7.87085C30.8924 7.56865 30.8857 7.25972 30.8723 6.95751C32.249 5.96358 33.4444 4.72117 34.3913 3.30415Z" fill="#737373"/>
</svg>
