<svg width="512" height="512" viewBox="0 0 512 512" fill="currentColor" aria-labelledby="behance" role="presentation" xmlns="http://www.w3.org/2000/svg">
  <title aria-labelledby="behance" lang="en">behance</title>
  <path d="M226.035 280.572V290.843C226.035 301.922 217.053 310.904 205.974 310.904H160.574V262.337H207.798C217.87 262.335 226.035 270.5 226.035 280.572ZM218.548 222.31V214.63C218.548 206.838 212.231 200.521 204.439 200.521H160.574V236.419H204.439C212.231 236.419 218.548 230.102 218.548 222.31ZM446 66V446H66V66H446ZM293.001 199.945H360.765V181.516H293.001V199.945ZM260.879 283.643C260.879 254.079 234.771 244.865 234.771 244.865C234.771 244.865 255.888 239.618 255.888 211.765C255.888 182.861 236.308 169.229 209.432 169.229C176.798 169.229 125.734 169.229 125.734 169.229V342.769H204.441C204.441 342.769 224.405 342.769 238.995 332.019C253.583 321.269 260.879 307.448 260.879 283.643ZM332.647 211.271C271.372 211.271 267.761 263.295 267.761 281.724C267.761 300.154 278.511 341.618 326.792 341.618C371.748 341.618 380.447 320.309 383.134 312.822C385.821 305.335 385.054 299.001 385.054 299.001H356.643C356.643 299.001 358.947 314.551 329.864 314.551C300.78 314.551 302.125 287.291 302.125 287.291H385.823C385.823 287.291 394.744 211.271 332.647 211.271ZM330.855 236.611C305.132 236.611 303.212 261.759 303.212 261.759H355.619C355.619 261.759 356.579 236.611 330.855 236.611Z"/>
</svg>
