<svg width="512" height="512" viewBox="0 0 512 512" fill="currentColor" aria-labelledby="codepen" role="presentation" xmlns="http://www.w3.org/2000/svg">
  <title id="codepen" lang="en">codepen</title>
  <path d="M459.756 179.018L263.756 48.3521C259.052 45.216 252.92 45.216 248.23 48.3521L52.23 179.018C48.338 181.609 46 185.991 46 190.667V321.333C46 326.009 48.338 330.391 52.23 332.982L248.23 463.648C250.582 465.216 253.284 466 256 466C258.716 466 261.418 465.216 263.77 463.648L459.77 332.982C463.662 330.391 466 326.009 466 321.333V190.667C466 185.991 463.662 181.609 459.77 179.018H459.756ZM255.986 304.519L183.228 256.007L255.986 207.495L328.744 256.007L255.986 304.519ZM269.986 183.177V86.1533L426.744 190.667L353.986 239.178L269.986 183.177ZM241.986 183.177L157.986 239.178L85.228 190.667L241.986 86.1533V183.177ZM132.744 256.007L73.986 295.18V216.834L132.744 256.007ZM157.986 272.836L241.986 328.837V425.861L85.228 321.347L157.986 272.836ZM269.986 328.837L353.986 272.836L426.744 321.347L269.986 425.861V328.837ZM379.228 256.007L437.986 216.834V295.18L379.228 256.007Z"/>
</svg>
