<svg width="512" height="512" viewBox="0 0 512 512" aria-labelledby="discord" role="presentation" xmlns="http://www.w3.org/2000/svg">
  <title id="discord" lang="en">discord</title>
  <path fill="currentColor" d="M214.253 120.582C210.866 111.183 207.448 101.707 207.386 101.583C205.755 97.9379 201.979 95.6425 198.002 96.0458C195.486 96.2474 135.937 101.366 97.7814 131.997C77.8336 150.391 38 257.934 38 350.914C38 352.558 38.4195 354.155 39.2429 355.582C66.7566 403.817 141.763 416.442 158.852 416.985C158.961 417 159.054 417 159.148 417C162.161 417 164.989 415.558 166.791 413.123L185.279 388.121C154.735 383.484 149.22 377.435 147.931 376.489C141.033 371.417 135.937 364.314 142.12 355.35C146.874 348.386 156.848 346.09 164.492 350.014C172.322 353.659 193.279 365.384 255.5 365.074C317.286 364.888 344.411 351.969 344.799 351.689C355.177 347.021 363.271 348.944 368.32 355.861C374.333 365.276 370.045 371.65 363.178 376.706C361.889 377.652 358.766 380.304 325.954 388.059L344.209 413.107C345.996 415.558 348.839 416.985 351.852 416.985C351.961 416.985 352.054 416.985 352.148 416.969C369.253 416.426 444.259 403.801 471.757 355.567C472.581 354.14 473 352.542 473 350.898C473 257.934 433.166 150.391 412.721 131.594C375.063 101.381 315.514 96.2629 312.998 96.0458C309.021 95.7046 305.245 97.9534 303.614 101.583C303.552 101.707 300.227 111.338 297.011 120.628C297.011 120.628 271.673 116.922 255.5 116.922C239.327 116.922 214.253 120.582 214.253 120.582ZM193.357 318.546C176.19 318.546 162.286 297.871 162.286 272.343C162.286 246.814 176.19 226.14 193.357 226.14C210.586 223.581 224.056 246.814 224.429 272.343C224.429 297.871 210.524 318.546 193.357 318.546ZM317.643 318.546C300.476 318.546 286.571 297.732 286.571 272.063C286.571 246.395 300.476 225.581 317.643 225.581C334.81 225.581 348.714 246.395 348.714 272.063C348.714 297.732 334.81 318.546 317.643 318.546Z"/>
</svg>
