<svg width="512" height="512" viewBox="0 0 512 512" fill="currentColor" aria-labelledby="dribbble" role="presentation" xmlns="http://www.w3.org/2000/svg">
  <title aria-labelledby="dribbble" lang="en">dribbble</title>
  <path d="M256 48C141.375 48 48 141.375 48 256C48 370.625 141.375 464 256 464C370.625 464 464 370.625 464 256C464 141.375 370.625 48 256 48ZM256 80C297.75 80 336 94.5 366.125 118.75C350.875 137.5 322.75 163.625 275.625 180.75C250 134.5 228.625 104.875 213.75 85.25C227.25 82 241.375 80 256 80ZM182 96.5C194.5 112.625 217.125 142.875 244 190.25C174.875 208.375 112.5 209.5 86.5 208.75C100.375 158.75 135.625 117.875 182 96.5ZM389.125 141C415.75 171.875 432 212 432 256C432 262.625 431.625 269 430.875 275.375C425.125 274.625 420.75 273.875 413.375 273.25C388.625 271.375 355.75 271.375 320.25 276.625C311 252.5 300.75 230.25 290.25 209.375C339.75 190.5 371 162.625 389.125 141ZM259.25 219.25C269.375 239 279.125 260.25 288.25 283C246.125 295.5 207.875 324 178.5 350.5C162.75 364.5 149.875 377.875 140.25 388.375C103.375 356.125 80 308.875 80 256C80 250.75 80.375 245.75 80.75 240.625C103.5 241.625 176.375 242.25 259.25 219.25ZM365.125 304.25C389.75 303.375 409.125 305 424.5 306.75C412.875 345.875 388 379.125 355.125 401.5C349.875 368.625 341.625 337 331.75 307.25C343.25 305.75 354.5 304.75 365.125 304.25ZM299.75 313.125C311.125 346 320.125 381.125 325.25 417.875C304 426.875 280.625 432 256 432C223.125 432 192.625 422.875 166.25 407.375C175.125 397.875 186.125 386.375 199.75 374.25C228 348.875 264.875 323 299.75 313.125Z"/>
</svg>
