<svg width="512" height="512" viewBox="0 0 512 512" aria-labelledby="facebook" role="presentation" xmlns="http://www.w3.org/2000/svg">
  <title id="facebook" lang="en">facebook</title>
  <path fill="currentColor" d="M374.75 66H137.25C97.9141 66 66 97.9141 66 137.25V374.75C66 414.086 97.9141 446 137.25 446H374.75C414.086 446 446 414.086 446 374.75V137.25C446 97.9141 414.086 66 374.75 66ZM365.102 270.672H329.534V402.268H270.159V270.672H247.094V226.313H270.159V198.052C270.159 161.057 285.516 139.077 329.191 139.077H373.38V183.266H347.689C330.733 183.266 329.591 189.546 329.591 201.421L329.534 226.313H369.954L365.102 270.672Z"/>
</svg>
