<svg width="512" height="512" viewBox="0 0 512 512" aria-labelledby="github" role="presentation" xmlns="http://www.w3.org/2000/svg">
  <title aria-labelledby="github" lang="en">github</title>
  <path fill="currentColor" d="M256 46C140.027 46 46 139.871 46 255.679C46 348.318 106.178 426.922 189.614 454.639C200.114 456.578 203.973 450.091 203.973 444.548C203.973 439.555 203.776 423.029 203.684 405.508C145.251 418.194 132.927 380.766 132.927 380.766C123.372 356.535 109.617 350.087 109.617 350.087C90.5594 337.074 111.061 337.336 111.061 337.336C132.139 338.817 143.243 358.946 143.243 358.946C161.972 391.001 192.37 381.736 204.353 376.376C206.23 362.825 211.677 353.573 217.688 348.331C171.042 343.037 122.007 325.044 122.007 244.71C122.007 221.816 130.21 203.115 143.65 188.425C141.471 183.143 134.279 161.822 145.684 132.938C145.684 132.938 163.324 127.303 203.448 154.43C220.195 149.778 238.163 147.459 256.013 147.367C273.85 147.445 291.831 149.778 308.618 154.43C348.702 127.303 366.302 132.938 366.302 132.938C377.734 161.822 370.542 183.143 368.363 188.425C381.829 203.102 389.98 221.816 389.98 244.71C389.98 325.24 340.853 342.971 294.089 348.174C301.623 354.687 308.329 367.438 308.329 387.004C308.329 415.062 308.08 437.641 308.08 444.548C308.08 450.13 311.86 456.67 322.504 454.612C405.901 426.856 466 348.292 466 255.679C466 139.871 371.973 46 256 46V46Z"/>
</svg>
