<svg width="512" height="512" viewBox="0 0 512 512" aria-labelledby="instagram" role="presentation" xmlns="http://www.w3.org/2000/svg">
  <title id="instagram" lang="en">instagram</title>
  <path fill="currentColor" d="M170.428 52C105.207 52 52 105.207 52 170.428V341.695C52 406.793 105.207 460 170.428 460H341.695C406.793 460 460 406.793 460 341.572V170.428C460 105.207 406.793 52 341.572 52H170.428ZM170.428 83.3846H341.572C389.875 83.3846 428.615 122.125 428.615 170.428V341.572C428.615 389.875 389.875 428.615 341.695 428.615H170.428C122.125 428.615 83.3846 389.875 83.3846 341.695V170.428C83.3846 122.125 122.125 83.3846 170.428 83.3846ZM381.538 114.769C372.834 114.769 365.846 121.757 365.846 130.462C365.846 139.166 372.834 146.154 381.538 146.154C390.243 146.154 397.231 139.166 397.231 130.462C397.231 121.757 390.243 114.769 381.538 114.769ZM256 146.154C195.56 146.154 146.154 195.56 146.154 256C146.154 316.44 195.56 365.846 256 365.846C316.44 365.846 365.846 316.44 365.846 256C365.846 195.56 316.44 146.154 256 146.154ZM256 177.538C299.522 177.538 334.462 212.478 334.462 256C334.462 299.522 299.522 334.462 256 334.462C212.478 334.462 177.538 299.522 177.538 256C177.538 212.478 212.478 177.538 256 177.538Z"/>
</svg>
