<svg width="512" height="512" viewBox="0 0 512 512" aria-labelledby="linkedin" role="presentation" xmlns="http://www.w3.org/2000/svg">
  <title id="linkedin" lang="en">linkedin</title>
  <path fill="currentColor" d="M374.75 66H137.25C97.9141 66 66 97.9141 66 137.25V374.75C66 414.086 97.9141 446 137.25 446H374.75C414.086 446 446 414.086 446 374.75V137.25C446 97.9141 414.086 66 374.75 66ZM183.494 388.566H124.462L124.119 211.811H183.151L183.494 388.566ZM152.493 188.689H152.151C132.854 188.689 120.408 175.387 120.408 158.831C120.408 141.874 133.254 129.029 152.893 129.029C172.532 129.029 184.579 141.874 184.978 158.831C184.978 175.387 172.475 188.689 152.493 188.689ZM388.166 388.566H328.62V292.538C328.62 269.302 322.454 253.488 301.673 253.488C285.802 253.488 277.238 264.164 273.127 274.498C271.586 278.209 271.186 283.29 271.186 288.485V388.566H211.355L211.012 211.811H270.844L271.186 236.76C278.837 224.942 291.568 208.215 322.055 208.215C359.849 208.215 388.109 232.878 388.109 285.916V388.566H388.166Z"/>
</svg>
