<svg width="512" height="512" viewBox="0 0 512 512" fill="currentColor" aria-labelledby="pinterest" role="presentation" xmlns="http://www.w3.org/2000/svg">
  <title aria-labelledby="pinterest" lang="en">pinterest</title>
  <path d="M256 48C141.125 48 48 141.125 48 256C48 344.125 102.875 419.375 180.25 449.75C178.375 433.25 176.75 408 180.875 390C184.75 373.875 205.25 286.625 205.25 286.625C205.25 286.625 199.125 274.125 199.125 255.75C199.125 226.875 215.875 205.25 236.75 205.25C254.5 205.25 263 218.625 263 234.5C263 252.375 251.625 279.125 245.875 303.75C240.875 324.5 256.25 341.375 276.625 341.375C313.625 341.375 342 302.375 342 246.125C342 196.375 306.25 161.5 255.125 161.5C196 161.5 161.25 205.875 161.25 251.75C161.25 269.625 168.125 288.875 176.75 299.25C178.375 301.375 178.625 303.125 178.125 305.25C176.625 311.75 173 326 172.375 328.875C171.5 332.625 169.375 333.5 165.375 331.625C139.375 319.5 123.125 281.5 123.125 251C123.125 185.375 170.875 125.125 260.625 125.125C332.75 125.125 388.875 176.5 388.875 245.25C388.875 316.875 343.625 374.625 280.875 374.625C259.75 374.625 240 363.625 233.25 350.75C233.25 350.75 222.75 390.5 220.25 400.25C215.5 418.25 202.875 440.875 194.375 454.75C213.875 460.75 234.5 464 256 464C370.875 464 464 370.875 464 256C464 141.125 370.875 48 256 48Z"/>
</svg>
