<svg width="512" height="512" viewBox="0 0 512 512" fill="currentColor" aria-labelledby="reddit" role="presentation" xmlns="http://www.w3.org/2000/svg">
  <title aria-labelledby="reddit" lang="en">reddit</title>
  <path d="M300.795 40C284.697 40 269.415 45.5911 258.333 56.3074C247.368 66.9072 241.068 82.3993 241.068 99.6385V130.856C196.39 133.418 155.912 147.163 124.649 169.295C115.433 163.703 105.168 160.325 94.7857 159.627C77.2878 158.462 58.9733 163.703 46.4914 177.565L46.2582 177.914L46.0248 178.147C34.4762 192.591 29.8101 212.043 32.9597 231.263C35.6427 248.269 45.5582 264.926 62.1229 276.574C62.0063 277.389 61.8896 278.088 61.8896 278.787C61.8896 321.07 84.8702 359.043 120.099 385.601C155.329 412.042 203.156 428 256 428C308.844 428 356.671 412.042 391.901 385.601C427.13 359.043 450.11 321.07 450.11 278.787C450.11 278.088 449.994 277.389 449.994 276.574C466.442 264.926 476.357 248.269 479.04 231.379C482.19 212.043 477.524 192.591 465.975 178.147L465.625 177.914L465.509 177.565C453.143 163.703 434.829 158.462 417.448 159.51C406.949 160.209 396.567 163.703 387.468 169.295C356.088 147.163 315.61 133.418 270.932 130.856V99.6385C270.932 89.3882 274.198 82.5158 279.214 77.74C284.23 72.8478 291.346 69.8193 300.795 69.8193C307.794 69.8193 318.176 75.4104 334.274 83.2147C350.372 91.0189 372.186 99.6385 401.583 99.6385H420.247C436.695 99.6385 450.11 86.2432 450.11 69.8193C450.11 53.3954 436.695 40 420.247 40C404.149 40 390.967 53.0459 390.501 69.1204C372.769 67.4896 359.471 62.3645 347.339 56.4239C332.758 49.3185 319.342 40 300.795 40ZM256 159.51C302.778 159.51 344.54 173.837 373.936 195.969C403.333 218.1 420.247 247.337 420.247 278.787C420.247 310.354 403.333 339.591 373.936 361.722C344.54 383.854 302.778 398.181 256 398.181C209.222 398.181 167.46 383.854 138.064 361.722C108.667 339.591 91.7528 310.354 91.7528 278.787C91.7528 247.337 108.667 218.1 138.064 195.969C167.46 173.837 209.222 159.51 256 159.51ZM419.314 189.329C429.113 188.747 437.978 192.125 442.761 197.25C448.127 204.122 451.394 215.654 449.644 226.603C448.711 231.962 446.844 237.087 443.811 241.746C437.628 223.109 427.013 205.986 412.898 190.96C415.114 190.494 417.098 189.446 419.314 189.329ZM92.686 189.329C94.9024 189.562 96.8855 190.494 98.9852 191.077C84.9869 205.986 74.3715 223.109 68.1889 241.746C65.1559 237.087 63.2895 231.962 62.3562 226.603C60.6064 215.538 63.8727 204.122 69.2388 197.25C74.0215 192.125 82.8871 188.747 92.686 189.329ZM181.342 218.916C164.894 218.916 151.479 232.311 151.479 248.735C151.479 265.159 164.894 278.554 181.342 278.554C197.79 278.554 211.205 265.159 211.205 248.735C211.205 232.311 197.79 218.916 181.342 218.916ZM330.658 218.916C314.21 218.916 300.795 232.311 300.795 248.735C300.795 265.159 314.21 278.554 330.658 278.554C347.106 278.554 360.521 265.159 360.521 248.735C360.521 232.311 347.106 218.916 330.658 218.916ZM181.342 308.373C189.858 336.096 221.821 368.012 256 368.012C290.179 368.012 322.142 338.193 330.658 308.373C315.26 325.38 285.047 338.193 256 338.193C226.953 338.193 196.74 323.283 181.342 308.373Z"/>
</svg>
