<svg width="512" height="512" viewBox="0 0 512 512" fill="currentColor" aria-labelledby="stackoverflow" role="presentation" xmlns="http://www.w3.org/2000/svg">
  <title id="stackoverflow" lang="en">stackoverflow</title>
  <path  d="M310.579 382.75H153.211V351.25H310.579V382.75ZM405 199.026L379.491 52L348.127 57.4495L373.621 204.476L405 199.026ZM311.145 308.284L157.774 292.928L154.847 324.68L308.36 338.524L311.145 308.284ZM319.612 267.539L173.637 226.463L165.359 257.238L311.806 296.613L319.612 267.539ZM338.559 229.534L207.99 152.926L191.797 180.378L322.382 257.002L338.559 229.534ZM367.924 206.429L283.905 83.122L257.593 101.077L341.612 224.384L367.924 206.429ZM326.316 272.5V398.5H137.474V272.5H106V430H357.789V272.5H326.316Z"/>
</svg>
