<svg width="512" height="512" viewBox="0 0 512 512" fill="currentColor" aria-labelledby="twitter" role="presentation" xmlns="http://www.w3.org/2000/svg">
  <title aria-labelledby="twitter" lang="en">twitter</title>
  <path d="M443 139.071C429.233 145.229 414.365 149.335 398.84 151.165C414.728 141.628 426.89 126.531 432.666 108.572C417.798 117.37 401.324 123.821 383.82 127.27C369.76 112.314 349.771 103 327.651 103C285.178 103 250.755 137.464 250.755 179.986C250.755 185.992 251.411 191.857 252.735 197.511C188.809 194.285 132.125 163.634 94.1982 117.018C87.6018 128.384 83.8056 141.651 83.8056 155.728C83.8056 182.414 97.35 206.016 118.006 219.811C105.411 219.447 93.5538 215.928 83.1495 210.203C83.1495 210.497 83.1495 210.86 83.1495 211.154C83.1495 248.468 109.664 279.635 144.884 286.662C138.44 288.421 131.633 289.371 124.603 289.371C119.623 289.371 114.866 288.855 110.109 287.975C119.928 318.545 148.34 340.832 181.943 341.501C155.581 362.17 122.482 374.498 86.3833 374.498C80.1618 374.498 74.0809 374.135 68 373.396C102.13 395.32 142.541 408 185.974 408C327.451 408 404.851 290.626 404.851 188.866C404.851 185.499 404.781 182.191 404.628 178.895C419.637 168.115 432.678 154.555 443 139.082V139.071Z"/>
</svg>
