<svg width="512" height="512" viewBox="0 0 512 512" fill="currentColor" aria-labelledby="youtube" role="presentation" xmlns="http://www.w3.org/2000/svg">
  <title aria-labelledby="youtube" lang="en">youtube</title>
  <path d="M256.485 83.5291C192.837 83.5291 136.505 90.1257 102.243 95.2564C74.1988 99.4098 51.8855 121.398 46.7644 149.617C42.3749 174.293 37.9854 210.33 37.9854 255.529C37.9854 300.728 42.3749 336.765 46.7644 361.441C51.8855 389.66 74.1988 411.526 102.243 415.802C136.627 420.933 193.203 427.529 256.485 427.529C319.767 427.529 376.221 420.933 410.606 415.802H410.728C438.772 411.648 461.085 389.66 466.206 361.441C470.596 336.643 474.985 300.606 474.985 255.529C474.985 210.33 470.596 174.293 466.084 149.617C461.085 121.398 438.772 99.4098 410.728 95.2564C376.465 90.1257 320.133 83.5291 256.485 83.5291ZM256.485 114.802C317.938 114.802 372.929 121.154 406.094 126.163C420.726 128.362 432.553 139.844 435.358 155.114C439.503 178.202 443.771 212.407 443.771 255.529C443.771 298.651 439.503 332.856 435.48 355.822C432.675 371.214 420.848 382.697 406.094 384.896C372.685 389.782 317.573 396.256 256.485 396.256C195.398 396.256 140.163 389.782 106.876 384.896C92.2446 382.697 80.2953 371.214 77.4909 355.822C73.4672 332.734 69.1996 298.651 69.1996 255.529C69.1996 212.285 73.4672 178.202 77.4909 155.114C80.2953 139.844 92.1226 128.362 106.754 126.285H106.876C140.041 121.276 195.032 114.802 256.485 114.802ZM194.057 177.347V333.711L350.128 255.529L194.057 177.347Z"/>
</svg>
